<svg xmlns="http://www.w3.org/2000/svg" viewBox="0 0 50 50" width="500px">
<path fill="#ede2bd" d="M 8 49 V 4 h 28.993 L 46 7.906 V 49 Z" />
  <path fill="#a0a1a2" d="M 36.785 5 L 45 8.563 V 48 H 9 V 5 h 27.785 m 0.415 -2 H 7 v 47 h 40 V 7.25 L 37.2 3 Z" />
  
  <path fill="#a0a1a2" d="M 34.2 0 H 3 v 46 h 40 V 7.25 Z" />
  <path fill="#fef5d9" d="M 34 2 H 5 v 42 h 36 V 7.25 h -7 Z" />
  
  <path fill="#4d8f78" d="M 2 0 v 8.25 h 47 V 2.5 L 46 0 Z" />
  
  <path fill="#447866" d="M 46 0 l 3 2.5 v 5.75 h -3 Z" />
  <path fill="#71a593" d="M 23.647 7 L 29 0 H 2 v 7 Z" />
  <path fill="#a29f97" d="M 23 16.762 l 8 4.619 v 9.238 l -8 4.619 l -8 -4.619 v -9.238 l 8 -4.619 m 0 -2.27 a 0.254 0.254 0 0 0 -0.125 0.033 l -9.75 5.629 a 0.252 0.252 0 0 0 -0.125 0.217 v 11.258 c 0 0.089 0.048 0.172 0.125 0.217 l 9.75 5.629 a 0.254 0.254 0 0 0 0.25 0 l 9.75 -5.629 a 0.252 0.252 0 0 0 0.125 -0.217 V 20.371 a 0.252 0.252 0 0 0 -0.125 -0.217 l -9.75 -5.629 a 0.254 0.254 0 0 0 -0.125 -0.033 Z" />
  
</svg>