<svg xmlns="http://www.w3.org/2000/svg" viewBox="0 0 50 50" width="500px">
<path fill="#b192c2" d="M 21.049 35.709 V 23.315 l 11.476 -6.322 L 44 23.315 v 12.394 l -11.475 6.322 Z" />

  
<path fill="#7d499a" d="M 32.525 19.277 L 42 24.496 v 10.031 l -9.475 5.22 l -9.475 -5.22 V 24.496 l 9.475 -5.219 m 0 -2.284 L 21.05 23.314 v 12.394 l 11.475 6.321 L 44 35.709 V 23.315 l -11.475 -6.322 Z" />

<path fill="#b192c2" d="M 0 35.709 V 23.315 l 11.475 -6.322 l 11.476 6.322 v 12.394 l -11.476 6.322 Z" />
  <path fill="#7d499a" d="M 11.475 19.277 l 9.475 5.22 v 10.031 l -9.475 5.22 L 2 34.528 V 24.496 l 9.475 -5.219 m 0 -2.284 L 0 23.315 v 12.394 l 11.475 6.321 l 11.475 -6.321 V 23.315 l -11.475 -6.322 Z" />
  
<path fill="#b192c2" d="M 10.984 18.937 V 7.038 L 22 0.969 l 11.016 6.069 v 11.899 L 22 25.005 Z" />
  <path fill="#7d499a" d="M 22 3.253 l 9.016 4.967 v 9.535 L 22 22.722 l -9.016 -4.967 V 8.22 L 22 3.253 m 0 -2.284 L 10.984 7.038 v 11.899 L 22 25.005 l 11.016 -6.069 V 7.038 L 22 0.969 Z" />
  <path fill="#fff" d="M 14.88 31.969 a 4.502 4.502 0 0 0 -0.289 -4.931 l 7.012 -10.215 c 0.249 0.022 0.497 0.032 0.744 0.012 l 6.492 10.138 c -0.137 0.172 -0.275 0.343 -0.388 0.539 a 4.505 4.505 0 0 0 1.646 6.145 a 4.505 4.505 0 0 0 6.145 -1.646 a 4.505 4.505 0 0 0 -1.646 -6.145 a 4.474 4.474 0 0 0 -2.5 -0.589 l -6.531 -10.213 c 0.114 -0.15 0.235 -0.292 0.331 -0.459 c 1.24 -2.148 0.501 -4.905 -1.646 -6.145 s -4.905 -0.501 -6.145 1.646 a 4.502 4.502 0 0 0 0.289 4.931 l -7.012 10.215 a 4.494 4.494 0 0 0 -4.293 2.219 a 4.505 4.505 0 0 0 1.646 6.145 a 4.506 4.506 0 0 0 6.145 -1.647 Z" />

<path fill="#7a7a7a" d="M 34 44 h 8 v 2 h -8 Z m 0 4 h 8 l -2 2 h -4 Z" />
<path opacity="0.4" fill="#a4d2e9" d="M 26.1 27.388 c 0 3.544 1.269 6.338 3.67 8.08 c 1.486 1.078 2.614 3.112 3.451 6.18 L 44 35.709 V 23.315 l -10.072 -5.548 c -4.513 1.473 -7.828 5.279 -7.828 9.621 Z" />
<path fill="#2873c8" d="M 48.9 27.388 c 0 -5.125 -5.064 -9.279 -10.9 -9.279 s -10.9 4.154 -10.9 9.279 c 0 2.878 0.914 5.57 3.257 7.27 c 2.211 1.605 3.323 4.652 3.988 7.311 h 7.311 c 0.665 -2.659 1.777 -5.706 3.988 -7.311 c 2.342 -1.7 3.256 -4.393 3.256 -7.27 Z" />
<path fill="#538fd3" d="M 44.314 19.737 C 42.613 18.71 40.22 18.109 38 18.109 c -5.836 0 -10.9 4.154 -10.9 9.279 c 0 2.527 0.705 4.911 2.463 6.606 l 14.751 -14.257 Z" />
<path opacity="0.8" fill="#d4e3f4" d="M 41.622 27.413 a 2.625 2.625 0 0 0 -2.625 2.625 v 1.296 h -1.994 v -1.296 a 2.625 2.625 0 1 0 -2.625 2.625 h 1.296 v 8.64 h 1.329 v -8.64 h 1.994 v 8.64 h 1.329 v -8.64 h 1.296 a 2.625 2.625 0 1 0 0 -5.25 Z m -8.557 2.626 c 0 -0.724 0.589 -1.313 1.313 -1.313 s 1.296 0.556 1.296 1.279 v 1.329 h -1.329 c -0.724 0.001 -1.28 -0.572 -1.28 -1.295 Z m 7.261 -0.033 c 0 -0.724 0.572 -1.279 1.296 -1.279 c 0.724 0 1.313 0.589 1.313 1.313 s -0.556 1.296 -1.279 1.296 h -1.329 v -1.33 Z" />
  
</svg>