<svg xmlns="http://www.w3.org/2000/svg" viewBox="0 0 50 50" width="500px">
<path class="msportalfx-svg-c15" fill="#67b4db" d="M 45.4 7.3 c -4.8 -5.2 -14.6 -3 -20.4 5.1 C 17.8 3.8 9.2 2.1 4.3 7.3 C -0.7 12.7 0.6 19 3.6 24.2 l 5.1 -0.1 l 4.9 -0.2 l 3.7 -9.8 c 0.2 -0.6 0.6 -1.7 2.1 -1.7 c 1.6 0 1.7 1.2 1.7 1.8 l 0.1 16.3 l 2.6 -5.5 c 0.2 -0.5 0.7 -0.8 1.2 -0.8 h 15.6 c 0.7 0 1.3 0.7 1.3 1.4 s -0.6 1.7 -1.3 1.7 h -14 l -5 10 c -0.3 1 -0.8 1.3 -1.9 1.2 c -0.6 -0.1 -1.1 -1 -1.1 -1.6 l -0.2 -15 l -1.5 4.1 c -0.1 0.5 -0.6 1.3 -1.1 1.4 H 5 c 6.1 8.9 16.6 16.4 19.6 17.7 v 0.1 v -0.1 c 6 -2.2 34.3 -23.2 20.8 -37.8 Z" />
  </svg>