<?xml version="1.0" encoding="UTF-8" standalone="no"?>
<!DOCTYPE svg PUBLIC "-//W3C//DTD SVG 1.1//EN" "http://www.w3.org/Graphics/SVG/1.1/DTD/svg11.dtd">
<!-- Generated by Microsoft Visio, SVG Export azure_monitor.svg Page-1 -->
<svg xmlns="http://www.w3.org/2000/svg" xmlns:xlink="http://www.w3.org/1999/xlink" xmlns:ev="http://www.w3.org/2001/xml-events"
		xmlns:v="http://schemas.microsoft.com/visio/2003/SVGExtensions/" width="5.41677in" height="5.41652in"
		viewBox="0 0 390.007 389.99" xml:space="preserve" color-interpolation-filters="sRGB" class="st9">
	<v:documentProperties v:langID="1033" v:viewMarkup="false"/>

	<style type="text/css">
	<![CDATA[
		.st1 {fill:#dfedbf;stroke:none;stroke-linecap:butt;stroke-width:7.5}
		.st2 {fill:#98c732;stroke:none;stroke-linecap:butt;stroke-width:7.5}
		.st3 {fill:#b2d565;stroke:none;stroke-linecap:butt;stroke-width:7.5}
		.st4 {fill:#a0a1a2;stroke:none;stroke-linecap:butt;stroke-width:7.5}
		.st5 {fill:#b3b4b4;stroke:none;stroke-linecap:butt;stroke-width:7.5}
		.st6 {fill:#7fba00;stroke:none;stroke-linecap:butt;stroke-width:7.5}
		.st7 {fill:#dd5900;stroke:none;stroke-linecap:butt;stroke-width:7.5}
		.st8 {fill:#ff8c00;stroke:none;stroke-linecap:butt;stroke-width:7.5}
		.st9 {fill:none;fill-rule:evenodd;font-size:12px;overflow:visible;stroke-linecap:square;stroke-miterlimit:3}
	]]>
	</style>

	<g v:mID="0" v:index="1" v:groupContext="foregroundPage">
		<title>Page-1</title>
		<v:pageProperties v:drawingScale="1" v:pageScale="1" v:drawingUnits="19" v:shadowOffsetX="9" v:shadowOffsetY="-9"/>
		<g id="group9-1" transform="translate(8.54837,-4.82805)" v:mID="9" v:groupContext="group">
			<title>Sheet.9</title>
			<g id="shape10-2" v:mID="10" v:groupContext="shape" transform="translate(62.085,-185.527)">
				<title>Sheet.10</title>
				<path d="M60.29 343.89 L22.43 313.25 A124.71 124.71 -180 0 0 0 389.99 L48.4 384.9 C48.4 370.72 52.31 356.49 60.29
							 343.89 Z" class="st1"/>
			</g>
			<g id="shape11-4" v:mID="11" v:groupContext="shape" transform="translate(182.137,-255.57)">
				<title>Sheet.11</title>
				<path d="M46.13 389.99 L76.79 352.12 A124.785 124.785 -180 0 0 0 329.76 L5.09 378.15 A76.545 76.545 0 0 1 46.13 389.99
							 Z" class="st2"/>
			</g>
			<g id="shape12-6" v:mID="12" v:groupContext="shape" transform="translate(95.145,-244.89)">
				<title>Sheet.12</title>
				<path d="M75.21 369.39 L70.11 320.94 A124.875 124.875 -180 0 0 0 359.36 L37.83 389.99 A76.41 76.41 0 0 1 75.21 369.39
							 Z" class="st3"/>
			</g>
			<g id="shape13-8" v:mID="13" v:groupContext="shape" transform="translate(63.915,-98.4525)">
				<title>Sheet.13</title>
				<path d="M48.45 314.7 L0 319.81 A124.793 124.792 -180 0 0 38.41 389.99 L69.03 352.16 A76.4325 76.4325 0 0 1 48.45
							 314.7 Z" class="st1"/>
			</g>
			<g id="shape14-10" v:mID="14" v:groupContext="shape" transform="translate(107.46,-2.27374E-13)">
				<title>Sheet.14</title>
				<path d="M265.44 180.2 C259.98 128.17 233.41 83.58 195.89 53.24 C188.61 47.34 180.76 42.2 172.64 37.49 L157.92 65.82
							 A148.65 148.65 0 0 1 175.81 78.06 C207.28 103.52 229.18 140.4 233.73 183.53 C238.24 226.32 224.99 266.73
							 199.95 297.72 C174.83 328.71 138.07 350.07 95.29 354.58 C66.64 357.58 39.12 352.5 14.71 341.37 L0 369.68
							 C29.82 383.56 63.59 389.99 98.63 386.28 A186.855 186.855 -180 0 0 224.74 317.79 A186.81 186.81 -180
							 0 0 265.44 180.2 Z" class="st4"/>
			</g>
			<g id="shape15-12" v:mID="15" v:groupContext="shape" transform="translate(-1.79057E-12,-20.3175)">
				<title>Sheet.15</title>
				<path d="M88.59 341.08 A154.95 154.95 0 0 1 31.73 236.47 A154.98 154.98 0 0 1 65.54 122.26 A154.92 154.92 0 0 1 170.17
							 65.43 C204.77 61.8 237.79 69.73 265.38 86.13 L280.1 57.81 A186.218 186.218 -180 0 0 166.81 33.7 A187.08
							 187.08 -180 0 0 40.72 102.18 L40.67 102.25 A187.05 187.05 -180 0 0 0 239.79 A187.013 187.013 -180 0
							 0 68.51 365.9 C80.38 375.51 93.52 383.49 107.47 389.99 L122.17 361.68 A156.105 156.105 0 0 1 88.59 341.08
							 Z" class="st5"/>
			</g>
			<g id="shape16-14" v:mID="16" v:groupContext="shape" transform="translate(241.552,-219.195)">
				<title>Sheet.16</title>
				<path d="M30.63 326.37 L0 364.21 A76.2 76.2 0 0 1 16.98 389.99 L67.79 389.99 A124.673 124.673 -180 0 0 30.63 326.37
							 Z" class="st6"/>
			</g>
			<g id="shape17-16" v:mID="17" v:groupContext="shape" transform="translate(165.585,-168.518)">
				<title>Sheet.17</title>
				<path d="M6.49 383.65 A21.9 21.9 0 0 1 6.35 352.67 A21.8925 21.8925 0 0 1 21.95 346.17 C27.52 346.17 33.1 348.03
							 37.37 352.27 C37.43 352.32 37.45 352.21 37.52 352.27 L144.66 352.27 L149.32 352.23 L149.35 352.27 A15.975
							 15.975 0 0 1 165.35 368.12 A15.96 15.96 0 0 1 149.44 384.15 L36.3 384.15 C32.18 387.75 27.04 389.99
							 21.88 389.99 C16.33 389.99 10.76 387.89 6.49 383.65 Z" class="st7"/>
			</g>
			<g id="shape18-18" v:mID="18" v:groupContext="shape" transform="translate(165.592,-190.29)">
				<title>Sheet.18</title>
				<path d="M149.34 374.18 L149.31 374.14 L144.65 374.18 L37.51 374.18 C37.44 374.12 37.42 374.23 37.37 374.18 C33.09
							 369.94 27.51 368.08 21.94 368.08 A21.8925 21.8925 -180 0 0 0 389.99 L165.33 389.99 A15.9675 15.9675
							 -180 0 0 149.34 374.18 Z" class="st8"/>
			</g>
		</g>
	</g>
</svg>
