<svg xmlns="http://www.w3.org/2000/svg" viewBox="0 0 50 50" width="500px">
<path class="msportalfx-svg-c03" clip-rule="evenodd" fill="#9f9fa0" fill-rule="evenodd" d="M 1 26 h 10 v 10 H 1 Z m 0 -13 h 10 v 10 H 1 Z m 0 26 h 10 v 10 H 1 Z m 13 0 h 10 v 10 H 14 Z m 13 0 h 10 v 10 H 27 Z" />
  <path class="msportalfx-svg-c19" clip-rule="evenodd" fill="#4372c1" fill-rule="evenodd" d="M 31.5 1 C 21.705 1 14 8.705 14 18.5 V 36 h 17.5 C 41.295 36 49 28.295 49 18.5 S 41.295 1 31.5 1 Z" />
  <path class="msportalfx-svg-c01" clip-rule="evenodd" fill="#ffffff" fill-rule="evenodd" d="M 21 16 h 3 v 11 h -3 V 16 Z m 7 3 h 3 v 8 h -3 v -8 Z m 7 -7 h 3 v 15 h -3 V 12 Z" />
</svg>