<svg xmlns="http://www.w3.org/2000/svg" viewBox="0 0 50 50" width="500px">

<path fill="#a0a1a2" d="M 26.656 29.743 H 16.317 c 1.242 4.38 -0.427 6.008 -7.737 6.008 v 2.294 h 24.858 v -2.293 c -7.309 -0.001 -8.026 -1.626 -6.782 -6.009" />
  
<path fill="#7a7a7a" d="M 26.656 29.743 H 16.317 c 1.242 4.38 -0.427 6.008 -7.737 6.008 v 2.294 h 24.858 v -2.293 c -7.309 -0.001 -8.026 -1.626 -6.782 -6.009" />

<path fill="#a0a1a2" d="M 38.704 1 H 3.066 C 1.923 1 1.001 2.03 1.001 3.181 v 24.656 c 0 1.144 0.922 2.163 2.065 2.163 h 35.638 C 39.845 30 41 28.981 41 27.837 V 3.181 C 41 2.028 39.845 1 38.704 1" />
<path fill="#a0a1a2" d="M 38.704 1 H 3.066 C 1.923 1 1.001 2.03 1.001 3.181 v 24.656 c 0 1.144 0.922 2.163 2.065 2.163 h 35.638 C 39.845 30 41 28.981 41 27.837 V 3.181 C 41 2.028 39.845 1 38.704 1" />
  
 <path fill="#b3b4b5" d="M 38.728 1.003 l -0.024 -0.002 H 3.065 C 1.922 1.001 1 2.031 1 3.182 v 24.655 C 1 28.981 1.922 30 3.065 30 h 0.801 L 38.728 1.003 Z" />
  
<path class="msportalfx-svg-c15" fill="#67b4db" d="M 38 27 H 4 V 4 l 34 -0.048 Z" />
 <path fill="#a0a1a2" d="M 8.581 35.751 h 24.858 v 2.294 H 8.581 Z" />
  
<path fill="#fff" d="M 21.022 14.844 a 0.208 0.208 0 0 1 -0.104 -0.03 l -6.848 -3.947 a 0.21 0.21 0 0 1 -0.102 -0.179 a 0.21 0.21 0 0 1 0.102 -0.179 l 6.806 -3.921 a 0.208 0.208 0 0 1 0.205 0 l 6.85 3.949 a 0.207 0.207 0 0 1 0 0.358 l -6.804 3.92 a 0.215 0.215 0 0 1 -0.105 0.029" />
  
  <path fill="#d1e8f4" d="M 20.038 24.439 a 0.19 0.19 0 0 1 -0.104 -0.028 l -6.827 -3.935 a 0.202 0.202 0 0 1 -0.107 -0.179 v -7.896 c 0 -0.075 0.04 -0.142 0.106 -0.179 a 0.206 0.206 0 0 1 0.209 0 l 6.826 3.934 c 0.06 0.039 0.101 0.106 0.101 0.181 v 7.896 c 0 0.076 -0.04 0.142 -0.101 0.179 a 0.23 0.23 0 0 1 -0.103 0.027" />
  
  <path fill="#a4d2e9" d="M 21.971 24.439 a 0.214 0.214 0 0 1 -0.107 -0.028 a 0.21 0.21 0 0 1 -0.1 -0.179 v -7.847 c 0 -0.073 0.04 -0.141 0.1 -0.179 l 6.826 -3.933 a 0.205 0.205 0 0 1 0.206 0 a 0.204 0.204 0 0 1 0.104 0.179 v 7.846 c 0 0.076 -0.04 0.143 -0.104 0.179 l -6.824 3.935 a 0.206 0.206 0 0 1 -0.101 0.027" />

<circle class="msportalfx-svg-c13" fill="#b9d123" cx="21" cy="2.5" r="0.75" />


<path opacity="0.4" fill="#a4d2e9" d="M 33.438 35.752 c -2.093 0 -3.632 -0.139 -4.752 -0.433 c 0.623 0.697 1.173 1.599 1.653 2.726 h 3.099 v -2.293 Z M 41 17.108 c -1.531 -0.633 -3.225 -1 -5 -1 c -6.45 0 -11.9 4.707 -11.9 10.279 c 0 2.673 0.724 4.918 2.109 6.608 c -0.106 -0.798 0.05 -1.784 0.38 -2.996 h 12.116 C 39.845 30 41 28.981 41 27.837 V 17.108 Z" />
<path fill="#2873c8" d="M 46.9 26.388 c 0 -5.125 -5.064 -9.279 -10.9 -9.279 s -10.9 4.154 -10.9 9.279 c 0 2.878 0.914 5.57 3.257 7.27 c 2.211 1.605 3.323 4.652 3.988 7.311 h 7.311 c 0.665 -2.659 1.777 -5.706 3.988 -7.311 c 2.342 -1.7 3.256 -4.393 3.256 -7.27 Z" />
<path fill="#538fd3" d="M 42.314 18.737 C 40.613 17.71 38.22 17.109 36 17.109 c -5.836 0 -10.9 4.154 -10.9 9.279 c 0 2.527 0.705 4.911 2.463 6.606 l 14.751 -14.257 Z" />
  
<path opacity="0.9" fill="#d4e3f4" d="M 39.622 26.413 a 2.625 2.625 0 0 0 -2.625 2.625 v 1.296 h -1.994 v -1.296 a 2.625 2.625 0 1 0 -2.625 2.625 h 1.296 v 8.64 h 1.329 v -8.64 h 1.994 v 8.64 h 1.329 v -8.64 h 1.296 a 2.625 2.625 0 1 0 0 -5.25 Z m -8.557 2.626 c 0 -0.724 0.589 -1.313 1.313 -1.313 s 1.296 0.556 1.296 1.279 v 1.329 h -1.329 c -0.724 0.001 -1.28 -0.572 -1.28 -1.295 Z m 7.261 -0.033 c 0 -0.724 0.572 -1.279 1.296 -1.279 c 0.724 0 1.313 0.589 1.313 1.313 s -0.556 1.296 -1.279 1.296 h -1.329 v -1.33 Z" />

<path fill="#7a7a7a" d="M 32 43 h 8 v 2 h -8 Z m 0 4 h 8 l -2 2 h -4 Z" />
  
  




</svg>